<svg xmlns="http://www.w3.org/2000/svg" xmlns:xlink="http://www.w3.org/1999/xlink" width="1080" zoomAndPan="magnify" viewBox="0 0 810 809.999993" height="1080" preserveAspectRatio="xMidYMid meet" version="1.0"><defs><clipPath id="6fd340e04f"><path d="M 186.769531 150 L 623.269531 150 L 623.269531 660 L 186.769531 660 Z M 186.769531 150 " clip-rule="nonzero"/></clipPath></defs><rect x="-81" width="972" fill="#ffffff" y="-80.999999" height="971.999992" fill-opacity="1"/><rect x="-81" width="972" fill="#f6c2cf" y="-80.999999" height="971.999992" fill-opacity="1"/><g clip-path="url(#6fd340e04f)"><path fill="#ffffff" d="M 614.8125 210.074219 C 627.65625 194.613281 625.609375 171.65625 610.152344 158.8125 C 594.695312 145.96875 571.738281 148.015625 558.894531 163.472656 L 404.996094 348.167969 L 251.101562 163.472656 C 238.257812 148.015625 215.300781 145.96875 199.84375 158.8125 C 184.382812 171.65625 182.339844 194.613281 195.183594 210.074219 L 357.601562 405 L 195.183594 599.925781 C 182.339844 615.382812 184.382812 638.34375 199.84375 651.1875 C 215.300781 664.03125 238.257812 661.984375 251.101562 646.527344 L 404.996094 461.828125 L 558.894531 646.527344 C 571.738281 661.984375 594.695312 664.03125 610.152344 651.1875 C 625.609375 638.34375 627.65625 615.382812 614.8125 599.925781 L 452.394531 405 Z M 614.8125 210.074219 " fill-opacity="1" fill-rule="nonzero"/></g></svg>