<svg xmlns="http://www.w3.org/2000/svg" xmlns:xlink="http://www.w3.org/1999/xlink" width="1080" zoomAndPan="magnify" viewBox="0 0 810 809.999993" height="1080" preserveAspectRatio="xMidYMid meet" version="1.0"><defs><clipPath id="06c8edf6a6"><path d="M 101.25 144 L 708.75 144 L 708.75 666 L 101.25 666 Z M 101.25 144 " clip-rule="nonzero"/></clipPath></defs><rect x="-81" width="972" fill="#ffffff" y="-80.999999" height="971.999992" fill-opacity="1"/><rect x="-81" width="972" fill="#f6c2cf" y="-80.999999" height="971.999992" fill-opacity="1"/><g clip-path="url(#06c8edf6a6)"><path fill="#ffffff" d="M 101.25 188.03125 C 101.25 164.03125 120.640625 144.640625 144.644531 144.640625 L 665.355469 144.640625 C 689.359375 144.640625 708.75 164.03125 708.75 188.03125 C 708.75 212.035156 689.359375 231.425781 665.355469 231.425781 L 144.644531 231.425781 C 120.640625 231.425781 101.25 212.035156 101.25 188.03125 Z M 101.25 404.996094 C 101.25 380.996094 120.640625 361.605469 144.644531 361.605469 L 665.355469 361.605469 C 689.359375 361.605469 708.75 380.996094 708.75 404.996094 C 708.75 429 689.359375 448.390625 665.355469 448.390625 L 144.644531 448.390625 C 120.640625 448.390625 101.25 429 101.25 404.996094 Z M 708.75 621.960938 C 708.75 645.964844 689.359375 665.355469 665.355469 665.355469 L 144.644531 665.355469 C 120.640625 665.355469 101.25 645.964844 101.25 621.960938 C 101.25 597.960938 120.640625 578.570312 144.644531 578.570312 L 665.355469 578.570312 C 689.359375 578.570312 708.75 597.960938 708.75 621.960938 Z M 708.75 621.960938 " fill-opacity="1" fill-rule="nonzero"/></g></svg>